<svg width="36" height="37" viewBox="0 0 36 37" fill="none" xmlns="http://www.w3.org/2000/svg">
<rect y="0.5" width="36" height="36" rx="18" fill="#3284FF"/>
<path d="M26.3333 17.7331V18.4997C26.3323 20.2967 25.7504 22.0453 24.6744 23.4846C23.5985 24.9239 22.0861 25.9768 20.3628 26.4863C18.6395 26.9958 16.7977 26.9346 15.112 26.3119C13.4264 25.6891 11.9872 24.5381 11.0091 23.0306C10.031 21.5231 9.56648 19.7398 9.68472 17.9467C9.80296 16.1535 10.4977 14.4467 11.6652 13.0806C12.8328 11.7146 14.4106 10.7625 16.1635 10.3665C17.9163 9.97048 19.7502 10.1517 21.3917 10.8831" stroke="white" stroke-width="1.66667" stroke-linecap="round" stroke-linejoin="round"/>
<path d="M26.3333 11.833L18 20.1747L15.5 17.6747" stroke="white" stroke-width="1.66667" stroke-linecap="round" stroke-linejoin="round"/>
</svg>
