<?xml version="1.0" standalone="no"?>
<!DOCTYPE svg PUBLIC "-//W3C//DTD SVG 20010904//EN"
 "http://www.w3.org/TR/2001/REC-SVG-20010904/DTD/svg10.dtd">
<svg version="1.0" xmlns="http://www.w3.org/2000/svg"
 width="90.000000pt" height="90.000000pt" viewBox="0 0 90.000000 90.000000"
 preserveAspectRatio="xMidYMid meet">

<g transform="translate(0.000000,90.000000) scale(0.100000,-0.100000)"
fill="#000000" stroke="none">
<path d="M124 766 c-12 -31 4 -47 43 -44 33 3 38 6 38 28 0 22 -5 25 -38 28
-26 2 -39 -1 -43 -12z"/>
<path d="M637 774 c-4 -4 -7 -129 -7 -278 l0 -270 -39 38 c-41 40 -73 45 -79
12 -5 -22 123 -156 148 -156 25 0 153 134 148 156 -6 33 -38 28 -79 -12 l-39
-38 -2 275 c-3 267 -4 274 -23 277 -12 2 -24 0 -28 -4z"/>
<path d="M124 645 c-14 -36 3 -46 73 -43 65 3 68 4 68 28 0 24 -3 25 -68 28
-53 2 -68 0 -73 -13z"/>
<path d="M124 525 c-3 -8 -3 -22 0 -30 5 -13 23 -15 103 -13 97 3 98 3 98 28
0 25 -1 25 -98 28 -80 2 -98 0 -103 -13z"/>
<path d="M124 405 c-3 -8 -3 -22 0 -30 5 -13 25 -15 118 -13 l113 3 0 25 0 25
-113 3 c-93 2 -113 0 -118 -13z"/>
<path d="M124 285 c-4 -8 -4 -22 0 -30 5 -13 28 -15 148 -13 l143 3 0 25 0 25
-143 3 c-120 2 -143 0 -148 -13z"/>
<path d="M124 165 c-4 -8 -4 -22 0 -30 5 -13 31 -15 178 -13 l173 3 0 25 0 25
-173 3 c-147 2 -173 0 -178 -13z"/>
</g>
</svg>
