<svg width="683" height="683" viewBox="0 0 683 683" fill="none" xmlns="http://www.w3.org/2000/svg">
<g clip-path="url(#clip0_1_2)">
<path d="M0 341.333V661.333H341.333H682.667V642.667V624H360H37.3333V322.667V21.3333H18.6667H0V341.333Z" fill="#009B4A"/>
<path d="M86.6667 85.3334V106.667H299.333H512V85.3334V64.0001H299.333H86.6667V85.3334Z" fill="#009B4A"/>
<path d="M149.333 162V182.667H262.667H376V162V141.333H262.667H149.333V162Z" fill="#009B4A"/>
<path d="M341.333 224.667V245.333H454.667H568V224.667V204H454.667H341.333V224.667Z" fill="#009B4A"/>
<path d="M122.667 357.333V378.667H236H349.333V357.333V336H236H122.667V357.333Z" fill="#009B4A"/>
<path d="M212.533 409.733C212.267 410.667 212.133 420.133 212.267 430.667L212.667 450L281.067 450.4L349.467 450.667L349.067 429.733L348.667 408.667L280.933 408.267C226.267 408 213.067 408.267 212.533 409.733Z" fill="#009B4A"/>
<path d="M360 483.333V504H426H492V483.333V462.667H426H360V483.333Z" fill="#009B4A"/>
<path d="M501.6 535.6L502 556.667L567.733 557.067L633.333 557.333V536V514.667H567.333H501.2L501.6 535.6Z" fill="#009B4A"/>
</g>
<defs>
<clipPath id="clip0_1_2">
<rect width="682.667" height="682.667" fill="white"/>
</clipPath>
</defs>
</svg>
