<?xml version="1.0" encoding="UTF-8"?><svg id="Layer_2" xmlns="http://www.w3.org/2000/svg" viewBox="0 0 706.75 266.68"><defs><style>.cls-1{fill:#00a55d;}.cls-2{fill:#231815;}</style></defs><g id="Nidec_logo"><g><polygon class="cls-1" points="224.98 157.25 164.32 157.25 196.12 57.25 256.9 57.25 224.98 157.25"/><path class="cls-1" d="M265.97,28.74c-2.47,7.89-10.95,14.25-18.85,14.25h-32.16c-7.89,0-12.25-6.48-9.78-14.25l4.59-14.25c2.47-7.89,10.96-14.25,18.85-14.25h32.16c7.89,0,12.25,6.48,9.78,14.25l-4.59,14.25Z"/><path class="cls-1" d="M318.74,143.35c-1.18,3.77-5.18,6.83-8.95,6.83h-.71c-3.77,0-5.89-3.06-4.59-6.83l22.97-72.09c1.18-3.77,5.18-6.83,8.95-6.83h.71c3.77,0,5.89,3.06,4.59,6.83l-22.97,72.09ZM364.33,.12l-20.38,63.96c1.18-3.77-.94-6.83-4.59-6.83h-53.95c-7.89,0-16.37,6.48-18.85,14.25l-22.73,71.38c-2.47,7.89,1.88,14.25,9.78,14.25h121.44L424.99,0h-60.66"/><path class="cls-1" d="M477.41,71.26c1.18-3.77,5.18-6.83,8.95-6.83h.71c3.77,0,5.77,3.06,4.59,6.83l-10.36,32.51h-14.25l10.36-32.51Zm62.31,39.58l12.49-39.23c2.47-7.89-1.89-14.25-9.78-14.25h-107.19c-7.89,0-16.37,6.48-18.85,14.25l-22.73,71.38c-2.47,7.89,1.89,14.25,9.78,14.25h121.56l2.24-7.18h-60.66c-7.89,0-12.25-6.48-9.78-14.25l7.89-24.97h75.03"/><path class="cls-1" d="M643.85,64.43h60.66l2.24-7.19h-121.33c-7.89,0-16.37,6.48-18.85,14.25l-22.73,71.5c-2.47,7.89,1.89,14.25,9.78,14.25h121.44l2.24-7.18h-60.66c-7.89,0-12.25-6.48-9.78-14.25l18.14-57.13c2.47-7.77,10.95-14.25,18.85-14.25"/><polygon class="cls-1" points="192.94 .12 161.02 100.12 100 .12 50.06 .12 0 157.25 7.19 157.25 38.99 57.25 100 157.25 150.07 157.25 200.01 .12 192.94 .12"/><path class="cls-2" d="M610.75,252.66c.47,1.06,1.06,2.36,2.24,3.53,2.35,2.35,6.48,4.01,11.31,4.01,1.41,0,2.83-.12,4.24-.59,4.83-1.53,4.83-5.54,4.83-5.77,0-.71-.12-1.41-.47-2.12-1.3-2.83-4.12-3.89-9.66-5.06-2-.47-3.89-.83-5.89-1.65-1.65-.59-8.25-3.06-8.25-10.95,0-6.95,5.65-14.72,18.38-14.72,5.77,0,10.25,2,12.96,4.83,2.59,2.59,3.06,5.18,3.42,6.95l-2.95,.83c-.82-1.53-2.94-6.01-11.54-6.01-6.24,0-8.72,2.94-8.72,5.77,0,3.89,3.89,5.07,7.77,6.01,1.65,.35,3.18,.71,4.83,1.06,2.35,.59,5.77,1.53,8.24,4.12,2,2.12,3.42,5.42,3.42,9.07,0,7.54-6.01,14.72-18.61,14.72-8.48,0-12.84-3.18-14.72-5.07-2.94-2.94-3.42-6.12-3.65-8.24l2.83-.71Z"/><path class="cls-2" d="M227.22,221.1c-.12-4.48,0-7.77,.94-10.37,2-5.54,7.3-8.01,13.19-8.01s8.24,2,10.25,3.89l-1.77,2.59c-.94-.47-2.36-1.06-4.48-1.06-2,0-4.48,.82-5.77,3.77-1.06,2.24-1.06,4.12-1.06,9.42h10.01v6.83h-10.01v36.87h-11.31v-36.87h-6.6v-6.83h6.6v-.24h0Z"/><path class="cls-2" d="M263.62,242.77c0,9.9,3.42,16.84,10.48,16.84s10.6-7.3,10.6-16.26c0-9.78-3.18-17.08-10.6-17.08s-10.48,6.95-10.48,16.49m33.1-.12c0,12.25-7.07,23.91-23.09,23.91-13.31,0-22.03-9.31-22.03-23.44,0-17.32,12.49-23.68,22.38-23.79,11.55-.24,22.73,7.42,22.73,23.32"/><path class="cls-2" d="M316.27,226.51c1.65-2.24,5.18-6.71,12.96-6.71,1.06,0,2.24,.12,3.18,.23v9.9c-2.12-1.06-4.36-2-7.54-2-4.24,0-6.71,1.77-8.72,2.95v33.81h-11.43v-43.7h11.43v5.54h.12Z"/><path class="cls-2" d="M383.88,231.93c-2.12-3.65-4.95-5.65-9.07-5.65-2.94,0-5.42,1.41-6.95,2.94-4.12,4.24-4.12,11.19-4.12,13.43,0,10.72,4.24,17.08,10.95,17.08,4.83,0,7.3-2.71,9.07-4.95v-22.85h.12Zm0-27.44h11.43v60.31h-11.43v-4.59c-2.36,2.35-6.01,6.24-13.43,6.24-10.01,0-18.38-8.01-18.38-23.09,0-12.84,6.83-24.27,19.08-24.27,7.3,0,10.72,4.12,12.84,6.6v-21.2"/><path class="cls-2" d="M416.86,226.51c1.65-2.24,5.18-6.71,12.96-6.71,1.06,0,2.24,.12,3.3,.23v9.9c-2.12-1.06-4.36-2-7.54-2-4.12,0-6.71,1.77-8.72,2.95v33.81h-11.43v-43.7h11.43v5.54Z"/><path class="cls-2" d="M468.81,237.35c-.47-3.89-1.41-11.07-10.01-11.07s-9.89,6.71-10.95,11.07h20.97Zm11.07,15.43c-1.89,4.83-5.42,13.78-20.38,13.78s-23.91-10.84-23.91-24.27,8.24-23.21,23.68-23.21c3.77,0,10.6,.59,15.9,5.89,6.01,6.12,6.13,14.25,6.24,19.08h-33.57c.47,3.18,1.89,15.31,15.31,15.31,7.89,0,11.07-4.01,14.14-7.89l2.59,1.3"/><path class="cls-2" d="M515.81,244.65c-2.24-.82-4.48-1.65-7.3-1.65-5.06,0-9.42,2.59-9.42,8.13,0,3.77,2.12,7.77,7.89,7.77,4.01,0,6.72-1.77,8.95-3.18v-11.07h-.12Zm11.07,20.02h-10.96v-4.95c-1.89,2-6.12,6.24-14.25,6.24-8.83,0-14.49-6.12-14.49-14.02,0-10.01,8.25-15.67,18.38-15.67,4.12,0,6.95,.83,10.36,1.89-.12-2.24-.23-4.48-1.18-6.71-2-4.59-6.95-5.65-10.13-5.65-7.3,0-10.36,4.12-12.02,6.48l-2.95-1.41c1.89-4.24,5.3-11.66,18.26-11.66,7.42,0,12.25,2.47,14.72,5.06,4.24,4.36,4.36,10.13,4.36,14.14v26.27"/><path class="cls-2" d="M548.2,226.51c1.77-2.24,5.42-6.71,13.78-6.71,2.35,0,5.18,.47,7.77,2,2.94,1.77,3.77,3.89,4.48,5.77,1.41-1.77,2.47-3.3,4.83-4.83,3.42-2.35,7.07-2.94,9.42-2.94,4.48,0,7.89,1.65,9.78,3.53,3.3,3.3,3.3,7.54,3.3,10.96v30.39h-11.43v-30.39c0-1.65-.12-3.89-1.77-5.65-1.06-1.18-2.95-1.89-4.71-1.89-2.47,0-4.83,1.18-6.48,2.95-1.06,1.06-1.65,2.12-2.36,3.3v31.8h-11.43v-29.92c0-1.18-.12-4.12-2-6.01-1.06-1.18-2.95-2-4.83-2-1.18,0-3.53,.23-6.01,2.71-1.41,1.3-1.89,2.35-2.47,3.42v31.8h-11.31v-43.7h11.43v5.42h0Z"/><rect class="cls-2" x="157.25" y="204.49" width="11.43" height="60.19"/><rect class="cls-2" x="180.22" y="204.49" width="11.43" height="60.19"/><path class="cls-2" d="M99.06,246.07l-8.83,18.73h10.6l7.77-17.43c-3.06-.47-6.24-.94-9.54-1.29"/><path class="cls-2" d="M122.97,204.49h-4.12l-16.49,34.87c3.06,.71,6.01,1.53,8.72,2.47l8.01-17.9,18.61,40.76h12.96l-27.68-60.19Z"/><path class="cls-2" d="M44.52,252.78c11.31-1.53,26.5-2.35,38.87-2.35,13.78,0,29.09,1.18,41.46,3.06,1.06,.23,1.65-.35,.71-.94-9.9-5.54-24.85-9.07-41.7-9.07-15.78,0-29.92,3.18-39.7,8.13-1.3,.59-.94,1.41,.35,1.18"/></g></g></svg>