<svg width="253" height="51" viewBox="0 0 253 51" fill="none" xmlns="http://www.w3.org/2000/svg">
<g clip-path="url(#clip0_3_6)">
<path d="M22.2922 13.9514C22.1472 12.4904 21.5251 11.3555 20.4259 10.5465C19.3267 9.73757 17.8349 9.3331 15.9506 9.3331C14.6702 9.3331 13.5891 9.5142 12.7073 9.87642C11.8255 10.2266 11.1491 10.7155 10.6781 11.3434C10.219 11.9712 9.98951 12.6836 9.98951 13.4805C9.96535 14.1445 10.1043 14.7241 10.4062 15.2191C10.7203 15.7142 11.1491 16.1428 11.6927 16.505C12.2363 16.8551 12.8644 17.163 13.577 17.4286C14.2897 17.6821 15.0507 17.8995 15.86 18.0806L19.1938 18.8774C20.8124 19.2397 22.2982 19.7227 23.6511 20.3264C25.0039 20.9301 26.1756 21.6726 27.1661 22.554C28.1566 23.4353 28.9236 24.4737 29.4672 25.669C30.0228 26.8644 30.3068 28.2348 30.3188 29.7802C30.3068 32.0501 29.7269 34.0181 28.5794 35.6843C27.444 37.3384 25.8012 38.6243 23.6511 39.5419C21.513 40.4475 18.9342 40.9002 15.9144 40.9002C12.9187 40.9002 10.3096 40.4414 8.08702 39.5238C5.87654 38.6061 4.14921 37.2478 2.90505 35.4488C1.67297 33.6378 1.02673 31.398 0.966339 28.7298H8.55812C8.64267 29.9733 8.99901 31.0117 9.62713 31.8448C10.2673 32.6658 11.1189 33.2876 12.1819 33.7103C13.2569 34.1207 14.4708 34.326 15.8238 34.326C17.1525 34.326 18.306 34.1328 19.2844 33.7465C20.275 33.3601 21.042 32.8228 21.5855 32.1346C22.1291 31.4464 22.4009 30.6556 22.4009 29.7621C22.4009 28.929 22.1532 28.2287 21.658 27.6612C21.1749 27.0937 20.4622 26.6108 19.52 26.2124C18.5899 25.814 17.4484 25.4517 16.0955 25.1257L12.055 24.1115C8.92654 23.3509 6.45633 22.1616 4.64446 20.5436C2.83257 18.9258 1.93267 16.7465 1.94476 14.0057C1.93267 11.76 2.53059 9.79794 3.73852 8.11968C4.95851 6.44141 6.63149 5.1314 8.75743 4.18963C10.8833 3.24787 13.2992 2.77699 16.0049 2.77699C18.759 2.77699 21.1628 3.24787 23.2162 4.18963C25.2818 5.1314 26.8884 6.44141 28.0358 8.11968C29.1833 9.79794 29.7753 11.7418 29.8115 13.9514H22.2922ZM40.2162 50.8068C39.2378 50.8068 38.3197 50.7283 37.4621 50.5714C36.6166 50.4265 35.9161 50.2394 35.3603 50.01L37.0998 44.2507C38.0057 44.5284 38.821 44.6793 39.5458 44.7035C40.2826 44.7276 40.9168 44.5586 41.4483 44.1964C41.9919 43.8342 42.4327 43.2184 42.7709 42.3491L43.224 41.1719L33.2405 12.5568H41.3577L47.1194 32.9858H47.4094L53.2255 12.5568H61.397L50.5802 43.3813C50.0608 44.8785 49.3541 46.1825 48.4603 47.2934C47.5784 48.4162 46.4611 49.2795 45.1083 49.8832C43.7555 50.4989 42.1248 50.8068 40.2162 50.8068ZM73.0656 24.2926V40.375H65.347V12.5568H72.7032V17.4648H73.0293C73.6454 15.847 74.6782 14.5671 76.1277 13.6254C77.5771 12.6715 79.3347 12.1946 81.4002 12.1946C83.3329 12.1946 85.0179 12.6172 86.4554 13.4624C87.8928 14.3075 89.0101 15.5149 89.8074 17.0845C90.6046 18.6421 91.0032 20.5015 91.0032 22.6626V40.375H83.2846V24.0391C83.2967 22.3366 82.8618 21.0085 81.9801 20.0547C81.0982 19.0888 79.8843 18.6059 78.3381 18.6059C77.2994 18.6059 76.3813 18.8292 75.5841 19.2759C74.799 19.7227 74.183 20.3746 73.736 21.2319C73.3011 22.077 73.0777 23.0973 73.0656 24.2926ZM109.661 40.9184C106.81 40.9184 104.358 40.3146 102.305 39.1072C100.263 37.8878 98.6931 36.1975 97.5939 34.0362C96.5068 31.875 95.9632 29.3878 95.9632 26.5746C95.9632 23.7251 96.5129 21.2259 97.612 19.0767C98.7233 16.9155 100.3 15.2311 102.341 14.0238C104.382 12.8043 106.81 12.1946 109.625 12.1946C112.053 12.1946 114.179 12.6353 116.003 13.5167C117.827 14.398 119.271 15.6356 120.334 17.2294C121.396 18.8231 121.982 20.6946 122.091 22.8438H114.807C114.602 21.4553 114.058 20.3384 113.177 19.4933C112.306 18.636 111.165 18.2074 109.752 18.2074C108.556 18.2074 107.511 18.5334 106.617 19.1854C105.735 19.8253 105.047 20.761 104.552 21.9926C104.056 23.2241 103.809 24.7152 103.809 26.4659C103.809 28.2407 104.05 29.75 104.533 30.9937C105.029 32.2372 105.723 33.1851 106.617 33.837C107.511 34.489 108.556 34.8149 109.752 34.8149C110.634 34.8149 111.425 34.6339 112.125 34.2717C112.837 33.9095 113.424 33.3843 113.882 32.696C114.354 31.9957 114.661 31.1566 114.807 30.1786H122.091C121.969 32.3036 121.39 34.1751 120.352 35.793C119.325 37.3988 117.905 38.6545 116.093 39.5601C114.281 40.4655 112.137 40.9184 109.661 40.9184Z" fill="black"/>
<path d="M161.281 40.9184C158.468 40.9184 156.033 40.3207 153.98 39.1254C151.939 37.918 150.362 36.2398 149.251 34.0905C148.14 31.9293 147.584 29.424 147.584 26.5746C147.584 23.701 148.14 21.1897 149.251 19.0405C150.362 16.8793 151.939 15.201 153.98 14.0057C156.033 12.7983 158.468 12.1946 161.281 12.1946C164.096 12.1946 166.524 12.7983 168.566 14.0057C170.618 15.201 172.201 16.8793 173.312 19.0405C174.424 21.1897 174.98 23.701 174.98 26.5746C174.98 29.424 174.424 31.9293 173.312 34.0905C172.201 36.2398 170.618 37.918 168.566 39.1254C166.524 40.3207 164.096 40.9184 161.281 40.9184ZM161.317 34.9418C162.598 34.9418 163.668 34.5796 164.524 33.8551C165.382 33.1187 166.028 32.1165 166.463 30.8487C166.911 29.581 167.134 28.1382 167.134 26.5202C167.134 24.9023 166.911 23.4595 166.463 22.1918C166.028 20.924 165.382 19.9219 164.524 19.1854C163.668 18.4488 162.598 18.0806 161.317 18.0806C160.025 18.0806 158.938 18.4488 158.056 19.1854C157.187 19.9219 156.529 20.924 156.081 22.1918C155.646 23.4595 155.43 24.9023 155.43 26.5202C155.43 28.1382 155.646 29.581 156.081 30.8487C156.529 32.1165 157.187 33.1187 158.056 33.8551C158.938 34.5796 160.025 34.9418 161.317 34.9418ZM187.717 24.2926V40.375H179.998V12.5568H187.355V17.4648H187.68C188.297 15.847 189.33 14.5671 190.779 13.6254C192.229 12.6715 193.986 12.1946 196.052 12.1946C197.985 12.1946 199.669 12.6172 201.106 13.4624C202.544 14.3075 203.662 15.5149 204.459 17.0845C205.256 18.6421 205.655 20.5015 205.655 22.6626V40.375H197.936V24.0391C197.948 22.3366 197.514 21.0085 196.631 20.0547C195.749 19.0888 194.535 18.6059 192.99 18.6059C191.951 18.6059 191.033 18.8292 190.235 19.2759C189.45 19.7227 188.834 20.3746 188.387 21.2319C187.952 22.0771 187.729 23.0973 187.717 24.2926ZM211.738 40.375V12.5568H219.456V40.375H211.738ZM215.615 8.97088C214.468 8.97088 213.484 8.59056 212.662 7.82991C211.853 7.05717 211.448 6.13353 211.448 5.05895C211.448 3.99645 211.853 3.08488 212.662 2.32422C213.484 1.5515 214.468 1.16513 215.615 1.16513C216.763 1.16513 217.741 1.5515 218.551 2.32422C219.371 3.08488 219.783 3.99645 219.783 5.05895C219.783 6.13353 219.371 7.05717 218.551 7.82991C217.741 8.59056 216.763 8.97088 215.615 8.97088ZM232.633 32.37L232.651 23.1154H233.775L242.689 12.5568H251.55L239.573 26.5384H237.743L232.633 32.37ZM225.64 40.375V3.2841H233.358V40.375H225.64ZM243.033 40.375L234.844 28.2589L239.99 22.8075L252.075 40.375H243.033Z" fill="black"/>
<path d="M215.251 9.5625C217.893 9.5625 220.035 7.42186 220.035 4.78125C220.035 2.14064 217.893 0 215.251 0C212.61 0 210.468 2.14064 210.468 4.78125C210.468 7.42186 212.61 9.5625 215.251 9.5625Z" fill="#33D1BF"/>
<path d="M127.857 26.821C128.174 22.7022 130.084 18.9639 133.117 16.1576C136.149 13.3514 140.13 11.7929 144.263 11.7942L144.26 19.9859C142.192 19.9853 140.201 20.765 138.684 22.169C137.167 23.5729 136.236 25.4977 136.077 27.5583L127.857 26.821Z" fill="black"/>
<path d="M127.86 26.7143H136.06V40.375H127.86V26.7143Z" fill="black"/>
</g>
<defs>
<clipPath id="clip0_3_6">
<rect width="252.987" height="51" fill="white"/>
</clipPath>
</defs>
</svg>
