<svg width="583" height="197" viewBox="0 0 583 197" fill="none" xmlns="http://www.w3.org/2000/svg">
<path d="M246.828 63.54C257.133 63.54 265.124 65.9853 270.801 70.876C276.565 75.6793 279.447 82.0983 279.447 90.133C279.447 98.9537 276.609 105.678 270.932 110.307C265.255 114.936 257.264 117.25 246.959 117.25L244.863 118.429H227.702V150H205.563V63.54H246.828ZM243.684 102.447C248.051 102.447 251.326 101.574 253.509 99.827C255.692 98.0803 256.784 95.2857 256.784 91.443C256.784 87.6877 255.692 84.9367 253.509 83.19C251.326 81.4433 248.051 80.57 243.684 80.57H227.702V102.447H243.684ZM256.915 107.163L284.556 150H259.666L237.527 112.141L256.915 107.163ZM358.411 84.5L334.569 150C332.124 156.899 329.46 162.401 326.578 166.506C323.696 170.611 320.29 173.58 316.36 175.414C312.43 177.248 307.714 178.165 302.212 178.165C298.544 178.165 295.182 177.772 292.125 176.986C289.069 176.2 286.405 175.108 284.134 173.711L288.588 158.646C290.16 159.781 291.82 160.567 293.566 161.004C295.313 161.528 297.54 161.79 300.247 161.79C302.78 161.79 304.832 161.353 306.404 160.48C308.064 159.607 309.374 157.947 310.334 155.502L312.037 151.441L304.439 133.625L284.789 84.5H309.286L319.373 121.835L322.517 135.721L326.185 121.311L336.272 84.5H358.411ZM362.928 150V136.376L388.997 106.77L395.94 99.827L385.591 100.089H363.19V84.5H420.568V98.124L394.892 127.468L387.687 134.673L399.215 134.411H421.747V150H362.928ZM465.461 151.31C458.212 151.31 451.924 149.956 446.597 147.249C441.357 144.542 437.296 140.655 434.414 135.59C431.532 130.525 430.091 124.411 430.091 117.25C430.091 110.089 431.532 103.975 434.414 98.91C437.296 93.8447 441.313 89.9583 446.466 87.251C451.706 84.5437 457.688 83.19 464.413 83.19C471.312 83.19 477.164 84.5437 481.967 87.251C486.858 89.871 490.569 93.539 493.102 98.255C495.635 102.884 496.901 108.211 496.901 114.237C496.901 115.809 496.857 117.381 496.77 118.953C496.683 120.525 496.552 121.835 496.377 122.883H444.501V110.962H486.552L475.941 115.023C475.941 109.783 474.98 105.766 473.059 102.971C471.225 100.176 468.343 98.779 464.413 98.779C461.618 98.779 459.217 99.434 457.208 100.744C455.287 102.054 453.802 104.106 452.754 106.901C451.793 109.696 451.313 113.276 451.313 117.643C451.313 121.922 451.881 125.416 453.016 128.123C454.151 130.743 455.767 132.664 457.863 133.887C459.959 135.022 462.492 135.59 465.461 135.59C468.78 135.59 471.4 134.935 473.321 133.625C475.33 132.315 476.814 130.481 477.775 128.123L495.591 134.018C494.368 137.773 492.229 140.961 489.172 143.581C486.203 146.114 482.622 148.035 478.43 149.345C474.325 150.655 470.002 151.31 465.461 151.31ZM509.359 150V84.5H529.271L530.45 107.032L527.961 104.543C528.834 99.827 530.363 95.897 532.546 92.753C534.817 89.609 537.611 87.251 540.93 85.679C544.336 84.0197 548.135 83.19 552.327 83.19C556.868 83.19 560.799 84.0633 564.117 85.81C567.523 87.5567 570.187 90.133 572.108 93.539C574.03 96.945 574.99 101.224 574.99 106.377V150H552.72V112.272C552.72 107.731 551.847 104.587 550.1 102.84C548.354 101.093 546.127 100.22 543.419 100.22C541.323 100.22 539.358 100.744 537.524 101.792C535.69 102.753 534.249 104.325 533.201 106.508C532.153 108.691 531.629 111.617 531.629 115.285V150H509.359Z" fill="black"/>
<path d="M408.08 190V168.909H411.808V176.798H411.963C412.155 176.413 412.426 176.005 412.776 175.572C413.126 175.133 413.6 174.759 414.197 174.45C414.795 174.134 415.557 173.976 416.484 173.976C417.706 173.976 418.808 174.288 419.789 174.913C420.778 175.531 421.561 176.447 422.137 177.663C422.721 178.871 423.013 180.354 423.013 182.112C423.013 183.848 422.728 185.325 422.158 186.54C421.588 187.755 420.812 188.682 419.831 189.32C418.849 189.959 417.737 190.278 416.494 190.278C415.588 190.278 414.836 190.127 414.239 189.825C413.641 189.523 413.161 189.159 412.797 188.733C412.44 188.301 412.162 187.892 411.963 187.508H411.746V190H408.08ZM411.736 182.091C411.736 183.114 411.88 184.01 412.169 184.779C412.464 185.548 412.886 186.148 413.435 186.581C413.991 187.007 414.664 187.219 415.454 187.219C416.278 187.219 416.968 187 417.524 186.56C418.08 186.114 418.499 185.507 418.78 184.738C419.069 183.962 419.213 183.08 419.213 182.091C419.213 181.109 419.072 180.237 418.79 179.475C418.509 178.713 418.09 178.116 417.534 177.683C416.978 177.251 416.285 177.034 415.454 177.034C414.657 177.034 413.981 177.244 413.425 177.663C412.869 178.081 412.447 178.668 412.158 179.424C411.877 180.179 411.736 181.068 411.736 182.091ZM427.961 195.932C427.453 195.932 426.983 195.891 426.55 195.808C426.125 195.733 425.785 195.643 425.531 195.54L426.396 192.636C426.938 192.794 427.422 192.87 427.848 192.863C428.273 192.856 428.648 192.722 428.97 192.461C429.3 192.207 429.578 191.782 429.805 191.184L430.124 190.33L424.388 174.182H428.342L431.988 186.128H432.153L435.808 174.182H439.773L433.44 191.915C433.145 192.753 432.753 193.471 432.266 194.068C431.778 194.672 431.181 195.132 430.474 195.448C429.774 195.77 428.936 195.932 427.961 195.932Z" fill="#9A9292"/>
<path d="M60.0009 60.001L162.834 58.909L58.909 162.834L60.0009 60.001Z" fill="#3284FF"/>
<path d="M114 108L169.426 163.5H58.5744L114 108Z" fill="#33D1BF"/>
<g clip-path="url(#clip0_11_18)">
<path d="M458.984 175.5C458.906 174.715 458.571 174.104 457.981 173.67C457.39 173.235 456.588 173.017 455.575 173.017C454.886 173.017 454.305 173.115 453.831 173.309C453.357 173.498 452.994 173.76 452.74 174.098C452.494 174.435 452.37 174.818 452.37 175.247C452.357 175.604 452.432 175.915 452.594 176.181C452.763 176.448 452.994 176.678 453.286 176.873C453.578 177.061 453.916 177.226 454.299 177.369C454.682 177.506 455.091 177.622 455.526 177.72L457.318 178.148C458.188 178.343 458.987 178.602 459.714 178.927C460.442 179.252 461.071 179.651 461.604 180.125C462.136 180.598 462.549 181.157 462.841 181.799C463.14 182.442 463.292 183.178 463.299 184.009C463.292 185.229 462.981 186.287 462.364 187.183C461.753 188.072 460.87 188.764 459.714 189.257C458.565 189.744 457.179 189.987 455.555 189.987C453.945 189.987 452.542 189.74 451.347 189.247C450.159 188.754 449.231 188.024 448.562 187.056C447.899 186.083 447.552 184.879 447.52 183.444H451.601C451.646 184.113 451.838 184.671 452.175 185.119C452.52 185.56 452.977 185.895 453.549 186.122C454.127 186.343 454.779 186.453 455.507 186.453C456.221 186.453 456.841 186.349 457.367 186.141C457.899 185.934 458.312 185.645 458.604 185.275C458.896 184.905 459.042 184.48 459.042 183.999C459.042 183.552 458.909 183.175 458.643 182.87C458.383 182.565 458 182.305 457.494 182.091C456.994 181.877 456.38 181.682 455.653 181.507L453.481 180.962C451.799 180.553 450.471 179.914 449.497 179.044C448.523 178.174 448.039 177.003 448.046 175.529C448.039 174.322 448.36 173.267 449.01 172.365C449.666 171.463 450.565 170.759 451.708 170.252C452.851 169.746 454.149 169.493 455.604 169.493C457.084 169.493 458.377 169.746 459.481 170.252C460.591 170.759 461.455 171.463 462.071 172.365C462.688 173.267 463.007 174.312 463.026 175.5H458.984ZM468.619 195.313C468.093 195.313 467.6 195.27 467.139 195.186C466.684 195.108 466.308 195.008 466.009 194.884L466.944 191.788C467.431 191.937 467.869 192.019 468.259 192.032C468.655 192.045 468.996 191.954 469.282 191.759C469.574 191.564 469.811 191.233 469.993 190.766L470.236 190.133L464.869 174.75H469.233L472.33 185.732H472.486L475.613 174.75H480.006L474.191 191.321C473.912 192.126 473.532 192.827 473.051 193.424C472.577 194.027 471.977 194.492 471.249 194.816C470.522 195.147 469.645 195.313 468.619 195.313ZM486.278 181.059V189.705H482.129V174.75H486.084V177.389H486.259C486.59 176.519 487.145 175.831 487.925 175.325C488.704 174.812 489.649 174.556 490.759 174.556C491.798 174.556 492.704 174.783 493.477 175.237C494.249 175.691 494.85 176.34 495.278 177.184C495.707 178.022 495.921 179.021 495.921 180.183V189.705H491.772V180.923C491.778 180.008 491.545 179.294 491.071 178.781C490.597 178.262 489.944 178.002 489.113 178.002C488.554 178.002 488.061 178.122 487.632 178.362C487.21 178.602 486.879 178.953 486.639 179.414C486.405 179.868 486.285 180.417 486.278 181.059ZM505.951 189.997C504.419 189.997 503.101 189.672 501.997 189.023C500.899 188.368 500.055 187.459 499.464 186.297C498.88 185.135 498.588 183.798 498.588 182.286C498.588 180.754 498.883 179.411 499.474 178.255C500.071 177.093 500.919 176.188 502.016 175.539C503.114 174.883 504.419 174.556 505.932 174.556C507.237 174.556 508.38 174.792 509.361 175.266C510.341 175.74 511.117 176.405 511.689 177.262C512.26 178.119 512.575 179.125 512.633 180.28H508.718C508.607 179.534 508.315 178.933 507.841 178.479C507.373 178.018 506.76 177.788 506 177.788C505.357 177.788 504.795 177.963 504.315 178.314C503.841 178.658 503.471 179.161 503.205 179.823C502.938 180.485 502.805 181.286 502.805 182.227C502.805 183.182 502.935 183.993 503.195 184.661C503.461 185.33 503.834 185.84 504.315 186.19C504.795 186.54 505.357 186.716 506 186.716C506.474 186.716 506.899 186.618 507.276 186.424C507.659 186.229 507.974 185.947 508.221 185.577C508.474 185.2 508.639 184.749 508.718 184.223H512.633C512.568 185.366 512.257 186.372 511.698 187.242C511.146 188.105 510.383 188.78 509.409 189.267C508.435 189.753 507.282 189.997 505.951 189.997Z" fill="#9A9292"/>
<path d="M533.701 189.997C532.189 189.997 530.88 189.676 529.776 189.033C528.679 188.384 527.831 187.482 527.234 186.326C526.636 185.164 526.338 183.818 526.338 182.286C526.338 180.741 526.636 179.391 527.234 178.236C527.831 177.074 528.679 176.172 529.776 175.529C530.88 174.88 532.189 174.556 533.701 174.556C535.214 174.556 536.519 174.88 537.617 175.529C538.721 176.172 539.571 177.074 540.169 178.236C540.766 179.391 541.065 180.741 541.065 182.286C541.065 183.818 540.766 185.164 540.169 186.326C539.571 187.482 538.721 188.384 537.617 189.033C536.519 189.676 535.214 189.997 533.701 189.997ZM533.721 186.784C534.409 186.784 534.984 186.589 535.445 186.2C535.906 185.804 536.253 185.265 536.487 184.584C536.727 183.902 536.847 183.126 536.847 182.257C536.847 181.387 536.727 180.611 536.487 179.93C536.253 179.248 535.906 178.71 535.445 178.314C534.984 177.918 534.409 177.72 533.721 177.72C533.026 177.72 532.442 177.918 531.967 178.314C531.5 178.71 531.146 179.248 530.906 179.93C530.672 180.611 530.555 181.387 530.555 182.257C530.555 183.126 530.672 183.902 530.906 184.584C531.146 185.265 531.5 185.804 531.967 186.2C532.442 186.589 533.026 186.784 533.721 186.784ZM547.913 181.059V189.705H543.763V174.75H547.718V177.389H547.893C548.224 176.519 548.779 175.831 549.558 175.325C550.338 174.812 551.282 174.556 552.393 174.556C553.432 174.556 554.338 174.783 555.11 175.237C555.883 175.691 556.484 176.34 556.913 177.184C557.341 178.022 557.555 179.021 557.555 180.183V189.705H553.406V180.923C553.413 180.008 553.179 179.294 552.705 178.781C552.23 178.262 551.578 178.002 550.747 178.002C550.189 178.002 549.695 178.122 549.266 178.362C548.844 178.602 548.513 178.953 548.273 179.414C548.039 179.868 547.919 180.417 547.913 181.059ZM560.826 189.705V174.75H564.975V189.705H560.826ZM562.91 172.823C562.293 172.823 561.764 172.618 561.322 172.209C560.887 171.794 560.67 171.297 560.67 170.72C560.67 170.148 560.887 169.658 561.322 169.249C561.764 168.834 562.293 168.626 562.91 168.626C563.527 168.626 564.053 168.834 564.488 169.249C564.929 169.658 565.15 170.148 565.15 170.72C565.15 171.297 564.929 171.794 564.488 172.209C564.053 172.618 563.527 172.823 562.91 172.823ZM572.058 185.401L572.068 180.426H572.672L577.464 174.75H582.227L575.789 182.266H574.805L572.058 185.401ZM568.299 189.705V169.765H572.448V189.705H568.299ZM577.649 189.705L573.247 183.191L576.013 180.261L582.51 189.705H577.649Z" fill="#9A9292"/>
<path d="M562.714 173.141C564.134 173.141 565.286 171.99 565.286 170.57C565.286 169.151 564.134 168 562.714 168C561.294 168 560.143 169.151 560.143 170.57C560.143 171.99 561.294 173.141 562.714 173.141Z" fill="#33D1BF"/>
<path d="M515.733 182.418C515.903 180.204 516.93 178.195 518.561 176.686C520.191 175.177 522.331 174.34 524.553 174.34L524.551 178.744C523.439 178.744 522.369 179.163 521.553 179.918C520.738 180.672 520.237 181.707 520.152 182.815L515.733 182.418Z" fill="#9A9292"/>
<path d="M515.735 182.361H520.143V189.705H515.735V182.361Z" fill="#9A9292"/>
</g>
<defs>
<clipPath id="clip0_11_18">
<rect width="136" height="27.4164" fill="white" transform="translate(447 168)"/>
</clipPath>
</defs>
</svg>
