<?xml version="1.0" encoding="UTF-8"?><svg id="Layer_2" xmlns="http://www.w3.org/2000/svg" viewBox="0 0 1112.72 277.14"><defs><style>.cls-1{fill:#ff161f;fill-rule:evenodd;}.cls-2{fill:none;stroke:#808386;stroke-width:3px;}.cls-2,.cls-3{stroke-miterlimit:2.41;}.cls-4{fill:#00a55d;}.cls-3{fill:#fff;stroke:#222221;stroke-width:11.73px;}.cls-5{fill:#222221;}.cls-6{fill:#231815;}</style></defs><g id="Layer_1-2"><g id="nidec_usmotors"><g id="usmotors"><circle class="cls-3" cx="989.36" cy="136.9" r="117.5"/><g><path class="cls-1" d="M1086.91,156.62c-9.15,45.51-49.35,79.79-97.55,79.79s-88.4-34.29-97.55-79.79h30.45v28.41c1.43,38.39,60.86,46.95,63.52,0v-28.41h41.63c35.54,44.24-21.59,64.11-26.08,30.36v-8.61h-10.33v39.48l8.05,.37c.85-6.03,5.72-7.54,13.85-5.43,40.63,8.2,58.78-32.66,45.54-56.17h28.48Zm-139.79,0h25.78v30.91c.37,18.14-25.82,17.18-25.78,0v-30.91h0Z"/><path class="cls-1" d="M989.36,37.39c47.14,0,86.63,33.27,96.91,77.93h-54.26c-7.64-10.27-13.78-18.88-15.43-25.62-5.73-24.53,28.15-28.01,30.72,14.54h10.05v-28.59h-2.94c-1.23,3.69-3.69,3.06-5.41,.46-25.36-40.47-80.29-7.03-47.67,39.2h-15.81v-47.35c.88-4.6,4.44-6.38,9.52-6.58v-7.87c-10.29-.41-20.28,.15-29.73,2.47v7.52c4.46-.59,6.93,1.76,7.4,7.05v44.77h-24.75v-38.83c-.15-4.77,3.15-7.7,7.42-9.12v-9.12c-17.41,5.61-29.64,14.59-40,24.8v8.88c4.5-3.06,7.58-3.76,7.54,.73v22.66h-30.47c10.27-44.66,49.77-77.93,96.9-77.93h0Z"/></g><path class="cls-5" d="M912.72,141.91l8.03-20.81h12.03v.87h-.96c-.87,0-1.57,.16-2.09,.48-.36,.22-.65,.59-.88,1.1-.16,.37-.24,1.34-.24,2.91v20.81c0,1.61,.08,2.62,.24,3.03,.16,.41,.49,.76,.98,1.06,.5,.31,1.15,.46,1.99,.46h.96v.86h-15.44v-.86h.96c.88,0,1.57-.17,2.1-.49,.36-.21,.65-.59,.87-1.12,.16-.37,.24-1.34,.24-2.93v-23.4l-11.33,28.8h-.53l-11.51-28.6v22.24c0,1.55,.04,2.51,.11,2.87,.19,.77,.6,1.41,1.23,1.89,.63,.49,1.62,.74,2.98,.74v.86h-10.12v-.86h.31c.65,.02,1.26-.1,1.83-.34,.57-.24,1-.56,1.29-.96,.29-.41,.51-.98,.68-1.7,.03-.17,.04-.96,.04-2.38v-19.98c0-1.6-.08-2.59-.24-2.99-.16-.4-.49-.75-.98-1.05-.5-.3-1.16-.45-1.99-.45h-.94v-.87h12.07l8.3,20.81h0Zm38.1-21.25c4.71-.19,8.53,1.28,11.48,4.39,2.94,3.12,4.41,7.03,4.41,11.71,0,4.01-1.09,7.53-3.29,10.57-2.91,4.04-7.02,6.06-12.32,6.06s-9.43-1.92-12.33-5.78c-2.29-3.04-3.44-6.65-3.44-10.82,0-4.69,1.5-8.6,4.48-11.72,2.99-3.13,6.66-4.6,11.02-4.41h0Zm.27,1.49c-2.71,0-4.76,1.48-6.17,4.43-1.15,2.42-1.72,5.9-1.72,10.43,0,5.39,.89,9.37,2.66,11.95,1.23,1.8,2.97,2.7,5.19,2.7,1.5,0,2.75-.39,3.75-1.16,1.27-.99,2.27-2.58,2.98-4.77,.71-2.18,1.07-5.02,1.07-8.53,0-4.18-.36-7.3-1.09-9.37-.73-2.07-1.65-3.54-2.78-4.4-1.12-.85-2.42-1.28-3.88-1.28h0Zm45.37-1.05v8.55h-.78c-.47-1.98-.98-3.39-1.55-4.25-.57-.87-1.35-1.55-2.34-2.06-.55-.29-1.52-.42-2.89-.42h-2.2v24.35c0,1.61,.08,2.62,.25,3.03,.17,.41,.5,.76,.98,1.06,.49,.31,1.15,.46,1.99,.46h.98v.86h-15.47v-.86h.98c.86,0,1.55-.17,2.07-.49,.38-.21,.68-.59,.89-1.12,.16-.37,.25-1.34,.25-2.93v-24.35h-2.14c-1.99,0-3.44,.45-4.34,1.35-1.26,1.26-2.06,3.05-2.4,5.38h-.83v-8.55h26.54Zm18.05-.44c4.71-.19,8.53,1.28,11.48,4.39,2.94,3.12,4.41,7.03,4.41,11.71,0,4.01-1.09,7.53-3.29,10.57-2.91,4.04-7.02,6.06-12.32,6.06s-9.43-1.92-12.33-5.78c-2.29-3.04-3.44-6.65-3.44-10.82,0-4.69,1.5-8.6,4.48-11.72,2.99-3.13,6.66-4.6,11.02-4.41h0Zm.27,1.49c-2.71,0-4.76,1.48-6.17,4.43-1.15,2.42-1.72,5.9-1.72,10.43,0,5.39,.89,9.37,2.66,11.95,1.23,1.8,2.97,2.7,5.19,2.7,1.5,0,2.75-.39,3.75-1.16,1.27-.99,2.27-2.58,2.98-4.77,.71-2.18,1.07-5.02,1.07-8.53,0-4.18-.36-7.3-1.09-9.37-.73-2.07-1.65-3.54-2.78-4.4-1.12-.85-2.42-1.28-3.88-1.28h0Zm29.07,16.13v8.85c0,1.71,.1,2.78,.29,3.22,.2,.45,.54,.8,1.03,1.07,.5,.26,1.42,.4,2.77,.4v.86h-15.13v-.86c1.37,0,2.29-.14,2.78-.41,.48-.27,.83-.62,1.03-1.06,.19-.44,.29-1.5,.29-3.21v-20.49c0-1.71-.1-2.78-.29-3.23-.2-.45-.54-.79-1.04-1.06-.49-.27-1.41-.4-2.77-.4v-.87h13.73c3.58,0,6.19,.27,7.85,.79,1.65,.52,3.01,1.5,4.05,2.92,1.04,1.41,1.57,3.08,1.57,4.99,0,2.33-.79,4.25-2.36,5.78-1,.96-2.4,1.68-4.2,2.16l7.1,10.69c.93,1.38,1.59,2.24,1.98,2.58,.6,.48,1.29,.75,2.08,.79v.86h-9.31l-9.52-14.39h-1.94Zm0-15.48v13.83h1.24c2.02,0,3.53-.19,4.53-.59,1-.4,1.79-1.11,2.37-2.15,.57-1.03,.86-2.38,.86-4.04,0-2.41-.53-4.18-1.58-5.33-1.05-1.15-2.75-1.72-5.09-1.72h-2.33Zm41.34-2.42l.25,10.52h-.9c-.42-2.64-1.45-4.76-3.1-6.37-1.65-1.61-3.43-2.41-5.35-2.41-1.48,0-2.66,.42-3.52,1.27-.87,.84-1.3,1.82-1.3,2.92,0,.69,.16,1.32,.46,1.86,.42,.73,1.09,1.45,2.02,2.16,.68,.52,2.26,1.42,4.73,2.73,3.46,1.82,5.79,3.54,6.99,5.15,1.2,1.61,1.79,3.46,1.79,5.54,0,2.64-.97,4.91-2.89,6.81-1.93,1.9-4.37,2.85-7.34,2.85-.93,0-1.82-.1-2.64-.3-.83-.21-1.87-.59-3.12-1.14-.7-.31-1.27-.46-1.72-.46-.38,0-.78,.15-1.2,.46-.42,.31-.77,.79-1.03,1.42h-.8v-11.92h.8c.64,3.35,1.87,5.91,3.7,7.67,1.82,1.76,3.79,2.65,5.89,2.65,1.63,0,2.92-.48,3.89-1.42,.97-.95,1.45-2.05,1.45-3.31,0-.75-.19-1.47-.56-2.17-.37-.69-.93-1.36-1.69-1.99-.76-.63-2.09-1.45-4.01-2.46-2.69-1.41-4.62-2.61-5.8-3.61-1.18-.99-2.08-2.11-2.72-3.33-.63-1.22-.95-2.58-.95-4.05,0-2.51,.87-4.66,2.6-6.43,1.73-1.76,3.91-2.65,6.54-2.65,.96,0,1.89,.12,2.79,.37,.68,.19,1.52,.53,2.49,1.04,.98,.5,1.67,.76,2.06,.76s.68-.13,.89-.37c.22-.25,.42-.84,.61-1.79h.65Z"/></g><g id="nidec"><polygon class="cls-4" points="224.98 167.71 164.32 167.71 196.12 67.71 256.9 67.71 224.98 167.71"/><path class="cls-4" d="M265.97,39.2c-2.47,7.89-10.95,14.25-18.85,14.25h-32.16c-7.89,0-12.25-6.48-9.78-14.25l4.59-14.25c2.47-7.89,10.96-14.25,18.85-14.25h32.16c7.89,0,12.25,6.48,9.78,14.25l-4.59,14.25Z"/><path class="cls-4" d="M318.74,153.81c-1.18,3.77-5.18,6.83-8.95,6.83h-.71c-3.77,0-5.89-3.06-4.59-6.83l22.97-72.09c1.18-3.77,5.18-6.83,8.95-6.83h.71c3.77,0,5.89,3.06,4.59,6.83l-22.97,72.09ZM364.33,10.58l-20.38,63.96c1.18-3.77-.94-6.83-4.59-6.83h-53.95c-7.89,0-16.37,6.48-18.85,14.25l-22.73,71.38c-2.47,7.89,1.88,14.25,9.78,14.25h121.44L424.99,10.46h-60.66"/><path class="cls-4" d="M477.41,81.73c1.18-3.77,5.18-6.83,8.95-6.83h.71c3.77,0,5.77,3.06,4.59,6.83l-10.36,32.51h-14.25l10.36-32.51Zm62.31,39.58l12.49-39.23c2.47-7.89-1.89-14.25-9.78-14.25h-107.19c-7.89,0-16.37,6.48-18.85,14.25l-22.73,71.38c-2.47,7.89,1.89,14.25,9.78,14.25h121.56l2.24-7.18h-60.66c-7.89,0-12.25-6.48-9.78-14.25l7.89-24.97h75.03"/><path class="cls-4" d="M643.85,74.89h60.66l2.24-7.19h-121.33c-7.89,0-16.37,6.48-18.85,14.25l-22.73,71.5c-2.47,7.89,1.89,14.25,9.78,14.25h121.44l2.24-7.18h-60.66c-7.89,0-12.25-6.48-9.78-14.25l18.14-57.13c2.47-7.77,10.95-14.25,18.85-14.25"/><polygon class="cls-4" points="192.94 10.58 161.02 110.58 100 10.58 50.06 10.58 0 167.71 7.19 167.71 38.99 67.71 100 167.71 150.07 167.71 200.01 10.58 192.94 10.58"/><path class="cls-6" d="M610.75,263.12c.47,1.06,1.06,2.36,2.24,3.53,2.35,2.35,6.48,4.01,11.31,4.01,1.41,0,2.83-.12,4.24-.59,4.83-1.53,4.83-5.54,4.83-5.77,0-.71-.12-1.41-.47-2.12-1.3-2.83-4.12-3.89-9.66-5.06-2-.47-3.89-.83-5.89-1.65-1.65-.59-8.25-3.06-8.25-10.95,0-6.95,5.65-14.72,18.38-14.72,5.77,0,10.25,2,12.96,4.83,2.59,2.59,3.06,5.18,3.42,6.95l-2.95,.83c-.82-1.53-2.94-6.01-11.54-6.01-6.24,0-8.72,2.94-8.72,5.77,0,3.89,3.89,5.07,7.77,6.01,1.65,.35,3.18,.71,4.83,1.06,2.35,.59,5.77,1.53,8.24,4.12,2,2.12,3.42,5.42,3.42,9.07,0,7.54-6.01,14.72-18.61,14.72-8.48,0-12.84-3.18-14.72-5.07-2.94-2.94-3.42-6.12-3.65-8.24l2.83-.71Z"/><path class="cls-6" d="M227.22,231.56c-.12-4.48,0-7.77,.94-10.37,2-5.54,7.3-8.01,13.19-8.01s8.24,2,10.25,3.89l-1.77,2.59c-.94-.47-2.36-1.06-4.48-1.06-2,0-4.48,.82-5.77,3.77-1.06,2.24-1.06,4.12-1.06,9.42h10.01v6.83h-10.01v36.87h-11.31v-36.87h-6.6v-6.83h6.6v-.24h0Z"/><path class="cls-6" d="M263.62,253.23c0,9.9,3.42,16.84,10.48,16.84s10.6-7.3,10.6-16.26c0-9.78-3.18-17.08-10.6-17.08s-10.48,6.95-10.48,16.49m33.1-.12c0,12.25-7.07,23.91-23.09,23.91-13.31,0-22.03-9.31-22.03-23.44,0-17.32,12.49-23.68,22.38-23.79,11.55-.24,22.73,7.42,22.73,23.32"/><path class="cls-6" d="M316.27,236.97c1.65-2.24,5.18-6.71,12.96-6.71,1.06,0,2.24,.12,3.18,.23v9.9c-2.12-1.06-4.36-2-7.54-2-4.24,0-6.71,1.77-8.72,2.95v33.81h-11.43v-43.7h11.43v5.54h.12Z"/><path class="cls-6" d="M383.88,242.39c-2.12-3.65-4.95-5.65-9.07-5.65-2.94,0-5.42,1.41-6.95,2.94-4.12,4.24-4.12,11.19-4.12,13.43,0,10.72,4.24,17.08,10.95,17.08,4.83,0,7.3-2.71,9.07-4.95v-22.85h.12Zm0-27.44h11.43v60.31h-11.43v-4.59c-2.36,2.35-6.01,6.24-13.43,6.24-10.01,0-18.38-8.01-18.38-23.09,0-12.84,6.83-24.27,19.08-24.27,7.3,0,10.72,4.12,12.84,6.6v-21.2"/><path class="cls-6" d="M416.86,236.97c1.65-2.24,5.18-6.71,12.96-6.71,1.06,0,2.24,.12,3.3,.23v9.9c-2.12-1.06-4.36-2-7.54-2-4.12,0-6.71,1.77-8.72,2.95v33.81h-11.43v-43.7h11.43v5.54Z"/><path class="cls-6" d="M468.81,247.81c-.47-3.89-1.41-11.07-10.01-11.07s-9.89,6.71-10.95,11.07h20.97Zm11.07,15.43c-1.89,4.83-5.42,13.78-20.38,13.78s-23.91-10.84-23.91-24.27,8.24-23.21,23.68-23.21c3.77,0,10.6,.59,15.9,5.89,6.01,6.12,6.13,14.25,6.24,19.08h-33.57c.47,3.18,1.89,15.31,15.31,15.31,7.89,0,11.07-4.01,14.14-7.89l2.59,1.3"/><path class="cls-6" d="M515.81,255.11c-2.24-.82-4.48-1.65-7.3-1.65-5.06,0-9.42,2.59-9.42,8.13,0,3.77,2.12,7.77,7.89,7.77,4.01,0,6.72-1.77,8.95-3.18v-11.07h-.12Zm11.07,20.02h-10.96v-4.95c-1.89,2-6.12,6.24-14.25,6.24-8.83,0-14.49-6.12-14.49-14.02,0-10.01,8.25-15.67,18.38-15.67,4.12,0,6.95,.83,10.36,1.89-.12-2.24-.23-4.48-1.18-6.71-2-4.59-6.95-5.65-10.13-5.65-7.3,0-10.36,4.12-12.02,6.48l-2.95-1.41c1.89-4.24,5.3-11.66,18.26-11.66,7.42,0,12.25,2.47,14.72,5.06,4.24,4.36,4.36,10.13,4.36,14.14v26.27"/><path class="cls-6" d="M548.2,236.97c1.77-2.24,5.42-6.71,13.78-6.71,2.35,0,5.18,.47,7.77,2,2.94,1.77,3.77,3.89,4.48,5.77,1.41-1.77,2.47-3.3,4.83-4.83,3.42-2.35,7.07-2.94,9.42-2.94,4.48,0,7.89,1.65,9.78,3.53,3.3,3.3,3.3,7.54,3.3,10.96v30.39h-11.43v-30.39c0-1.65-.12-3.89-1.77-5.65-1.06-1.18-2.95-1.89-4.71-1.89-2.47,0-4.83,1.18-6.48,2.95-1.06,1.06-1.65,2.12-2.36,3.3v31.8h-11.43v-29.92c0-1.18-.12-4.12-2-6.01-1.06-1.18-2.95-2-4.83-2-1.18,0-3.53,.23-6.01,2.71-1.41,1.3-1.89,2.35-2.47,3.42v31.8h-11.31v-43.7h11.43v5.42h0Z"/><rect class="cls-6" x="157.25" y="214.95" width="11.43" height="60.19"/><rect class="cls-6" x="180.22" y="214.95" width="11.43" height="60.19"/><path class="cls-6" d="M99.06,256.53l-8.83,18.73h10.6l7.77-17.43c-3.06-.47-6.24-.94-9.54-1.29"/><path class="cls-6" d="M122.97,214.95h-4.12l-16.49,34.87c3.06,.71,6.01,1.53,8.72,2.47l8.01-17.9,18.61,40.76h12.96l-27.68-60.19Z"/><path class="cls-6" d="M44.52,263.24c11.31-1.53,26.5-2.35,38.87-2.35,13.78,0,29.09,1.18,41.46,3.06,1.06,.23,1.65-.35,.71-.94-9.9-5.54-24.85-9.07-41.7-9.07-15.78,0-29.92,3.18-39.7,8.13-1.3,.59-.94,1.41,.35,1.18"/></g><line class="cls-2" x1="793.01" y1="0" x2="793.01" y2="260"/></g></g></svg>