<?xml version="1.0" encoding="UTF-8"?><svg id="Layer_2" xmlns="http://www.w3.org/2000/svg" viewBox="0 0 525.95 525.95"><defs><style>.cls-1{fill:#ff161f;fill-rule:evenodd;}.cls-2{fill:#fff;stroke:#222221;stroke-miterlimit:2.41;stroke-width:25px;}.cls-3{fill:#222221;}</style></defs><g id="Layer_1-2"><g><circle class="cls-2" cx="262.97" cy="262.97" r="250.47"/><g><path class="cls-1" d="M470.92,305.01c-19.51,97-105.21,170.09-207.95,170.09S74.53,402.01,55.02,305.01H119.94v60.56c3.05,81.84,129.74,100.07,135.4,0v-60.56h88.75c75.76,94.3-46.03,136.67-55.6,64.72v-18.35h-22.03v84.15l17.15,.8c1.8-12.84,12.2-16.07,29.51-11.57,86.62,17.49,125.31-69.61,97.08-119.75h60.71Zm-298,0h54.95v65.9c.78,38.67-55.04,36.62-54.95,0v-65.9h0Z"/><path class="cls-1" d="M262.97,50.85c100.49,0,184.68,70.93,206.57,166.12h-115.67c-16.29-21.88-29.38-40.25-32.89-54.61-12.22-52.28,60-59.72,65.5,31h21.42v-60.95h-6.26c-2.63,7.86-7.87,6.52-11.53,.99-54.07-86.26-171.16-15-101.62,83.57h-33.69V116.03c1.87-9.81,9.47-13.6,20.29-14.02v-16.78c-21.93-.88-43.23,.33-63.37,5.26v16.03c9.51-1.25,14.77,3.76,15.78,15.03v95.44h-52.77v-82.77c-.32-10.17,6.72-16.42,15.81-19.43v-19.44c-37.11,11.95-63.18,31.11-85.26,52.86v18.92c9.6-6.51,16.16-8,16.07,1.55v48.31H56.4C78.3,121.78,162.49,50.85,262.97,50.85h0Z"/></g><path class="cls-3" d="M99.61,273.66l17.11-44.37h25.64v1.85h-2.05c-1.86,0-3.35,.34-4.46,1.03-.78,.47-1.4,1.25-1.87,2.34-.33,.8-.51,2.86-.51,6.2v44.37c0,3.44,.17,5.59,.51,6.46,.35,.86,1.05,1.61,2.09,2.25,1.06,.66,2.46,.98,4.23,.98h2.05v1.83h-32.91v-1.83h2.05c1.87,0,3.35-.36,4.47-1.05,.76-.46,1.4-1.25,1.86-2.39,.33-.78,.51-2.86,.51-6.25v-49.88l-24.15,61.4h-1.13l-24.53-60.96v47.4c0,3.3,.08,5.35,.24,6.12,.4,1.64,1.28,3,2.63,4.03,1.35,1.05,3.46,1.58,6.34,1.58v1.83h-21.57v-1.83h.65c1.4,.03,2.7-.22,3.9-.73,1.21-.51,2.13-1.2,2.74-2.05,.62-.86,1.09-2.08,1.44-3.63,.06-.37,.09-2.05,.09-5.07v-42.59c0-3.41-.17-5.52-.51-6.37-.35-.85-1.05-1.59-2.09-2.24-1.06-.64-2.47-.97-4.23-.97h-2v-1.85h25.74l17.7,44.37h0Zm81.21-45.3c10.04-.41,18.19,2.73,24.47,9.37,6.26,6.66,9.4,14.98,9.4,24.97,0,8.54-2.33,16.04-7.01,22.53-6.2,8.61-14.95,12.91-26.26,12.91s-20.09-4.1-26.29-12.32c-4.88-6.49-7.34-14.18-7.34-23.07,0-10,3.19-18.33,9.55-24.99,6.38-6.68,14.19-9.81,23.49-9.4h0Zm.57,3.17c-5.77,0-10.15,3.15-13.16,9.44-2.44,5.15-3.66,12.57-3.66,22.23,0,11.49,1.89,19.97,5.66,25.46,2.63,3.85,6.33,5.76,11.07,5.76,3.19,0,5.85-.83,7.99-2.47,2.71-2.12,4.84-5.51,6.36-10.17,1.52-4.64,2.28-10.71,2.28-18.18,0-8.91-.78-15.57-2.33-19.97-1.55-4.42-3.52-7.54-5.93-9.37-2.39-1.81-5.15-2.73-8.28-2.73h0Zm96.72-2.24v18.23h-1.67c-1-4.22-2.09-7.23-3.3-9.06-1.21-1.85-2.87-3.3-4.98-4.39-1.17-.61-3.23-.9-6.17-.9h-4.69v51.91c0,3.44,.17,5.59,.52,6.46,.36,.86,1.06,1.61,2.09,2.25,1.05,.66,2.46,.98,4.25,.98h2.09v1.83h-32.99v-1.83h2.09c1.82,0,3.3-.36,4.41-1.05,.81-.46,1.44-1.25,1.9-2.39,.35-.78,.52-2.86,.52-6.25v-51.91h-4.57c-4.23,0-7.33,.95-9.25,2.88-2.7,2.68-4.39,6.51-5.11,11.47h-1.76v-18.23h56.58Zm38.47-.93c10.04-.41,18.19,2.73,24.47,9.37,6.26,6.66,9.4,14.98,9.4,24.97,0,8.54-2.33,16.04-7.01,22.53-6.2,8.61-14.95,12.91-26.26,12.91s-20.09-4.1-26.29-12.32c-4.88-6.49-7.34-14.18-7.34-23.07,0-10,3.19-18.33,9.55-24.99,6.38-6.68,14.19-9.81,23.49-9.4h0Zm.57,3.17c-5.77,0-10.15,3.15-13.16,9.44-2.44,5.15-3.66,12.57-3.66,22.23,0,11.49,1.89,19.97,5.66,25.46,2.63,3.85,6.33,5.76,11.07,5.76,3.19,0,5.85-.83,7.99-2.47,2.71-2.12,4.84-5.51,6.36-10.17,1.52-4.64,2.28-10.71,2.28-18.18,0-8.91-.78-15.57-2.33-19.97-1.55-4.42-3.52-7.54-5.93-9.37-2.39-1.81-5.15-2.73-8.28-2.73h0Zm61.98,34.39v18.87c0,3.64,.21,5.93,.62,6.86,.43,.95,1.16,1.71,2.2,2.27,1.06,.56,3.03,.85,5.92,.85v1.83h-32.26v-1.83c2.92,0,4.88-.29,5.93-.88,1.03-.58,1.76-1.32,2.19-2.25,.41-.93,.62-3.2,.62-6.84v-43.68c0-3.64-.21-5.93-.62-6.88-.43-.95-1.16-1.69-2.22-2.25-1.05-.58-3.01-.85-5.9-.85v-1.85h29.28c7.63,0,13.19,.58,16.73,1.69,3.52,1.12,6.41,3.2,8.64,6.23,2.22,3.02,3.35,6.57,3.35,10.64,0,4.96-1.68,9.06-5.03,12.32-2.14,2.05-5.12,3.59-8.96,4.61l15.14,22.79c1.98,2.95,3.39,4.78,4.22,5.51,1.28,1.03,2.74,1.59,4.42,1.69v1.83h-19.84l-20.3-30.68h-4.14Zm0-33v29.48h2.65c4.3,0,7.52-.41,9.66-1.25,2.14-.85,3.82-2.37,5.04-4.57,1.22-2.2,1.84-5.07,1.84-8.61,0-5.13-1.13-8.91-3.38-11.37-2.24-2.46-5.85-3.68-10.85-3.68h-4.96Zm88.13-5.15l.52,22.43h-1.92c-.89-5.62-3.09-10.15-6.61-13.59-3.52-3.42-7.31-5.13-11.4-5.13-3.16,0-5.66,.9-7.5,2.71-1.86,1.8-2.78,3.88-2.78,6.23,0,1.47,.33,2.81,.98,3.96,.89,1.56,2.33,3.1,4.31,4.61,1.46,1.1,4.82,3.03,10.09,5.81,7.37,3.88,12.34,7.54,14.91,10.98,2.55,3.44,3.82,7.37,3.82,11.81,0,5.62-2.06,10.47-6.15,14.52-4.11,4.05-9.32,6.08-15.64,6.08-1.98,0-3.87-.22-5.63-.64-1.76-.44-3.98-1.25-6.64-2.44-1.49-.66-2.71-.98-3.66-.98-.81,0-1.67,.32-2.55,.98-.9,.66-1.63,1.68-2.19,3.03h-1.71v-25.41h1.71c1.36,7.15,3.98,12.59,7.88,16.35,3.89,3.76,8.07,5.64,12.56,5.64,3.47,0,6.23-1.02,8.29-3.03,2.06-2.02,3.09-4.37,3.09-7.05,0-1.59-.4-3.13-1.19-4.63-.79-1.47-1.98-2.9-3.6-4.24-1.62-1.34-4.46-3.08-8.55-5.24-5.72-3.02-9.85-5.57-12.35-7.69-2.52-2.12-4.44-4.49-5.79-7.1-1.35-2.61-2.03-5.49-2.03-8.64,0-5.35,1.86-9.93,5.53-13.71,3.69-3.76,8.34-5.64,13.94-5.64,2.05,0,4.03,.25,5.95,.78,1.46,.41,3.24,1.13,5.31,2.22,2.09,1.07,3.57,1.61,4.39,1.61s1.44-.27,1.9-.8c.48-.53,.9-1.8,1.3-3.81h1.4Z"/></g></g></svg>