<svg width="36" height="37" viewBox="0 0 36 37" fill="none" xmlns="http://www.w3.org/2000/svg">
<rect y="0.5" width="36" height="36" rx="18" fill="#F5AF54"/>
<path d="M16.575 11.7168L9.51667 23.5002C9.37114 23.7522 9.29414 24.0379 9.29333 24.3289C9.29251 24.62 9.36791 24.9061 9.51202 25.1589C9.65614 25.4118 9.86394 25.6225 10.1148 25.77C10.3656 25.9176 10.6507 25.997 10.9417 26.0002H25.0583C25.3493 25.997 25.6344 25.9176 25.8852 25.77C26.1361 25.6225 26.3439 25.4118 26.488 25.1589C26.6321 24.9061 26.7075 24.62 26.7067 24.3289C26.7059 24.0379 26.6289 23.7522 26.4833 23.5002L19.425 11.7168C19.2764 11.4719 19.0673 11.2694 18.8177 11.1289C18.5681 10.9884 18.2864 10.9146 18 10.9146C17.7136 10.9146 17.4319 10.9884 17.1823 11.1289C16.9327 11.2694 16.7236 11.4719 16.575 11.7168V11.7168Z" stroke="white" stroke-width="1.66667" stroke-linecap="round" stroke-linejoin="round"/>
<path d="M18 16V19.3333" stroke="white" stroke-width="1.66667" stroke-linecap="round" stroke-linejoin="round"/>
<path d="M18 22.667H18.0083" stroke="white" stroke-width="1.66667" stroke-linecap="round" stroke-linejoin="round"/>
</svg>
